<mxfile host="app.diagrams.net" modified="2020-04-12T13:48:14.758Z" agent="5.0 (Windows NT 10.0; Win64; x64) AppleWebKit/537.36 (KHTML, like Gecko) Chrome/80.0.3987.163 Safari/537.36" etag="MdaCymFvBkKOK8ECtzFe" version="12.9.11" type="github">
  <diagram id="f4iNGfGUkEjJzXReWPvX" name="VSMCurrent">
    <mxGraphModel dx="1354" dy="756" grid="1" gridSize="10" guides="1" tooltips="1" connect="1" arrows="1" fold="1" page="1" pageScale="1" pageWidth="1169" pageHeight="827" math="0" shadow="0">
      <root>
        <mxCell id="0" />
        <mxCell id="1" parent="0" />
        <mxCell id="L1_6_QMRr2lnn1sgYfEx-1" value="Stackeholders&lt;br&gt;PO / Product Area" style="strokeWidth=2;html=1;shape=mxgraph.lean_mapping.outside_sources;whiteSpace=wrap;align=center;verticalAlign=middle;spacingTop=8;" vertex="1" parent="1">
          <mxGeometry x="1010" y="40" width="120" height="90" as="geometry" />
        </mxCell>
        <mxCell id="L1_6_QMRr2lnn1sgYfEx-14" value="Production&#xa;Control" style="swimlane;fontStyle=0;childLayout=stackLayout;horizontal=1;startSize=41;horizontalStack=0;resizeParent=1;resizeParentMax=0;resizeLast=0;collapsible=1;marginBottom=0;align=center;fontSize=14;" vertex="1" parent="1">
          <mxGeometry x="530" y="20" width="160" height="80" as="geometry">
            <mxRectangle x="350" y="100" width="100" height="41" as="alternateBounds" />
          </mxGeometry>
        </mxCell>
        <mxCell id="L1_6_QMRr2lnn1sgYfEx-60" value="" style="group" vertex="1" connectable="0" parent="1">
          <mxGeometry x="210" y="330" width="160" height="120" as="geometry" />
        </mxCell>
        <mxCell id="L1_6_QMRr2lnn1sgYfEx-56" value="&lt;span style=&quot;font-size: 14px&quot;&gt;Submit Feature Request&lt;/span&gt;" style="rounded=0;whiteSpace=wrap;html=1;fillColor=none;align=center;" vertex="1" parent="L1_6_QMRr2lnn1sgYfEx-60">
          <mxGeometry width="160" height="40" as="geometry" />
        </mxCell>
        <mxCell id="L1_6_QMRr2lnn1sgYfEx-57" value="Product Area / PO / BA&lt;span style=&quot;font-size: 14px&quot;&gt;&lt;br&gt;&lt;/span&gt;" style="rounded=0;whiteSpace=wrap;html=1;fillColor=none;align=center;verticalAlign=top;" vertex="1" parent="L1_6_QMRr2lnn1sgYfEx-60">
          <mxGeometry y="40" width="160" height="80" as="geometry" />
        </mxCell>
        <mxCell id="L1_6_QMRr2lnn1sgYfEx-58" value="" style="verticalLabelPosition=bottom;html=1;verticalAlign=top;strokeWidth=2;shape=mxgraph.lean_mapping.operator;fillColor=none;align=center;" vertex="1" parent="L1_6_QMRr2lnn1sgYfEx-60">
          <mxGeometry x="10" y="80" width="30" height="23" as="geometry" />
        </mxCell>
        <mxCell id="L1_6_QMRr2lnn1sgYfEx-59" value="4" style="text;html=1;strokeColor=none;fillColor=none;align=center;verticalAlign=middle;whiteSpace=wrap;rounded=0;" vertex="1" parent="L1_6_QMRr2lnn1sgYfEx-60">
          <mxGeometry x="30" y="84" width="40" height="20" as="geometry" />
        </mxCell>
        <mxCell id="L1_6_QMRr2lnn1sgYfEx-61" value="" style="group" vertex="1" connectable="0" parent="1">
          <mxGeometry x="415" y="330" width="160" height="120" as="geometry" />
        </mxCell>
        <mxCell id="L1_6_QMRr2lnn1sgYfEx-62" value="&lt;span style=&quot;font-size: 14px&quot;&gt;Development&lt;/span&gt;" style="rounded=0;whiteSpace=wrap;html=1;fillColor=none;align=center;" vertex="1" parent="L1_6_QMRr2lnn1sgYfEx-61">
          <mxGeometry width="160" height="40" as="geometry" />
        </mxCell>
        <mxCell id="L1_6_QMRr2lnn1sgYfEx-63" value="&lt;span&gt;Software Engineer&lt;/span&gt;&lt;span style=&quot;font-size: 14px&quot;&gt;&lt;br&gt;&lt;/span&gt;" style="rounded=0;whiteSpace=wrap;html=1;fillColor=none;align=center;verticalAlign=top;" vertex="1" parent="L1_6_QMRr2lnn1sgYfEx-61">
          <mxGeometry y="40" width="160" height="80" as="geometry" />
        </mxCell>
        <mxCell id="L1_6_QMRr2lnn1sgYfEx-64" value="" style="verticalLabelPosition=bottom;html=1;verticalAlign=top;strokeWidth=2;shape=mxgraph.lean_mapping.operator;fillColor=none;align=center;" vertex="1" parent="L1_6_QMRr2lnn1sgYfEx-61">
          <mxGeometry x="10" y="80" width="30" height="23" as="geometry" />
        </mxCell>
        <mxCell id="L1_6_QMRr2lnn1sgYfEx-65" value="2" style="text;html=1;strokeColor=none;fillColor=none;align=center;verticalAlign=middle;whiteSpace=wrap;rounded=0;" vertex="1" parent="L1_6_QMRr2lnn1sgYfEx-61">
          <mxGeometry x="30" y="84" width="40" height="20" as="geometry" />
        </mxCell>
        <mxCell id="L1_6_QMRr2lnn1sgYfEx-71" value="" style="group" vertex="1" connectable="0" parent="1">
          <mxGeometry x="830" y="330" width="160" height="120" as="geometry" />
        </mxCell>
        <mxCell id="L1_6_QMRr2lnn1sgYfEx-72" value="&lt;span style=&quot;font-size: 14px&quot;&gt;Complete QA testing&lt;/span&gt;" style="rounded=0;whiteSpace=wrap;html=1;fillColor=none;align=center;" vertex="1" parent="L1_6_QMRr2lnn1sgYfEx-71">
          <mxGeometry width="160" height="40" as="geometry" />
        </mxCell>
        <mxCell id="L1_6_QMRr2lnn1sgYfEx-73" value="QA Specialist" style="rounded=0;whiteSpace=wrap;html=1;fillColor=none;align=center;verticalAlign=top;" vertex="1" parent="L1_6_QMRr2lnn1sgYfEx-71">
          <mxGeometry y="40" width="160" height="80" as="geometry" />
        </mxCell>
        <mxCell id="L1_6_QMRr2lnn1sgYfEx-74" value="" style="verticalLabelPosition=bottom;html=1;verticalAlign=top;strokeWidth=2;shape=mxgraph.lean_mapping.operator;fillColor=none;align=center;" vertex="1" parent="L1_6_QMRr2lnn1sgYfEx-71">
          <mxGeometry x="10" y="80" width="30" height="23" as="geometry" />
        </mxCell>
        <mxCell id="L1_6_QMRr2lnn1sgYfEx-75" value="2" style="text;html=1;strokeColor=none;fillColor=none;align=center;verticalAlign=middle;whiteSpace=wrap;rounded=0;" vertex="1" parent="L1_6_QMRr2lnn1sgYfEx-71">
          <mxGeometry x="30" y="84" width="40" height="20" as="geometry" />
        </mxCell>
        <mxCell id="L1_6_QMRr2lnn1sgYfEx-76" value="" style="group" vertex="1" connectable="0" parent="1">
          <mxGeometry x="620" y="330" width="160" height="120" as="geometry" />
        </mxCell>
        <mxCell id="L1_6_QMRr2lnn1sgYfEx-77" value="&lt;span style=&quot;font-size: 14px&quot;&gt;Deploy to Test Env.&lt;/span&gt;" style="rounded=0;whiteSpace=wrap;html=1;fillColor=none;align=center;" vertex="1" parent="L1_6_QMRr2lnn1sgYfEx-76">
          <mxGeometry width="160" height="40" as="geometry" />
        </mxCell>
        <mxCell id="L1_6_QMRr2lnn1sgYfEx-78" value="QA Specialist" style="rounded=0;whiteSpace=wrap;html=1;fillColor=none;align=center;verticalAlign=top;" vertex="1" parent="L1_6_QMRr2lnn1sgYfEx-76">
          <mxGeometry y="40" width="160" height="80" as="geometry" />
        </mxCell>
        <mxCell id="L1_6_QMRr2lnn1sgYfEx-79" value="" style="verticalLabelPosition=bottom;html=1;verticalAlign=top;strokeWidth=2;shape=mxgraph.lean_mapping.operator;fillColor=none;align=center;" vertex="1" parent="L1_6_QMRr2lnn1sgYfEx-76">
          <mxGeometry x="10" y="80" width="30" height="23" as="geometry" />
        </mxCell>
        <mxCell id="L1_6_QMRr2lnn1sgYfEx-80" value="1" style="text;html=1;strokeColor=none;fillColor=none;align=center;verticalAlign=middle;whiteSpace=wrap;rounded=0;" vertex="1" parent="L1_6_QMRr2lnn1sgYfEx-76">
          <mxGeometry x="30" y="84" width="40" height="20" as="geometry" />
        </mxCell>
        <mxCell id="L1_6_QMRr2lnn1sgYfEx-81" value="Azure DevOps" style="rounded=0;whiteSpace=wrap;html=1;fillColor=none;align=center;" vertex="1" parent="1">
          <mxGeometry x="210" y="260" width="160" height="40" as="geometry" />
        </mxCell>
        <mxCell id="L1_6_QMRr2lnn1sgYfEx-82" value="C#" style="rounded=0;whiteSpace=wrap;html=1;fillColor=none;align=center;" vertex="1" parent="1">
          <mxGeometry x="415" y="260" width="160" height="40" as="geometry" />
        </mxCell>
        <mxCell id="L1_6_QMRr2lnn1sgYfEx-83" value="AzureDevOps" style="rounded=0;whiteSpace=wrap;html=1;fillColor=none;align=center;" vertex="1" parent="1">
          <mxGeometry x="620" y="260" width="160" height="40" as="geometry" />
        </mxCell>
        <mxCell id="L1_6_QMRr2lnn1sgYfEx-85" value="Selenium" style="rounded=0;whiteSpace=wrap;html=1;fillColor=none;align=center;" vertex="1" parent="1">
          <mxGeometry x="830" y="260" width="160" height="40" as="geometry" />
        </mxCell>
        <mxCell id="L1_6_QMRr2lnn1sgYfEx-87" value="" style="edgeStyle=orthogonalEdgeStyle;rounded=0;orthogonalLoop=1;jettySize=auto;html=1;entryX=0.5;entryY=1;entryDx=0;entryDy=0;" edge="1" parent="1" source="L1_6_QMRr2lnn1sgYfEx-73" target="L1_6_QMRr2lnn1sgYfEx-1">
          <mxGeometry relative="1" as="geometry">
            <mxPoint x="1070" y="410" as="targetPoint" />
          </mxGeometry>
        </mxCell>
      </root>
    </mxGraphModel>
  </diagram>
</mxfile>
